<mxfile host="app.diagrams.net" agent="Mozilla/5.0 (Windows NT 10.0; Win64; x64) AppleWebKit/537.36 (KHTML, like Gecko) Chrome/134.0.0.0 Safari/537.36 Edg/134.0.0.0" version="26.1.1">
  <diagram name="PÃ¡gina-1" id="oSFzo2WkxCP2I4ZO4Q2s">
    <mxGraphModel dx="4005" dy="1703" grid="1" gridSize="10" guides="1" tooltips="1" connect="1" arrows="1" fold="1" page="1" pageScale="1" pageWidth="827" pageHeight="1169" math="0" shadow="0">
      <root>
        <mxCell id="0" />
        <mxCell id="1" parent="0" />
        <mxCell id="ptbaP2BZjWbsXgXxhmSc-1" value="FRONTEND" style="rounded=0;whiteSpace=wrap;html=1;" parent="1" vertex="1">
          <mxGeometry x="210" y="90" width="120" height="60" as="geometry" />
        </mxCell>
        <mxCell id="ptbaP2BZjWbsXgXxhmSc-3" value="" style="endArrow=classic;html=1;rounded=0;exitX=0.5;exitY=1;exitDx=0;exitDy=0;entryX=0.5;entryY=0;entryDx=0;entryDy=0;" parent="1" source="ptbaP2BZjWbsXgXxhmSc-1" target="ptbaP2BZjWbsXgXxhmSc-4" edge="1">
          <mxGeometry width="50" height="50" relative="1" as="geometry">
            <mxPoint x="520" y="410" as="sourcePoint" />
            <mxPoint x="270" y="230" as="targetPoint" />
          </mxGeometry>
        </mxCell>
        <mxCell id="ptbaP2BZjWbsXgXxhmSc-4" value="OPEN THE APP" style="rounded=0;whiteSpace=wrap;html=1;" parent="1" vertex="1">
          <mxGeometry x="210" y="240" width="120" height="60" as="geometry" />
        </mxCell>
        <mxCell id="ptbaP2BZjWbsXgXxhmSc-5" value="CREATE A UUID FOR THE ESPECIFIC DEVICE" style="rounded=0;whiteSpace=wrap;html=1;" parent="1" vertex="1">
          <mxGeometry x="560" y="525" width="120" height="60" as="geometry" />
        </mxCell>
        <mxCell id="ptbaP2BZjWbsXgXxhmSc-6" value="" style="endArrow=classic;html=1;rounded=0;exitX=0.5;exitY=1;exitDx=0;exitDy=0;" parent="1" source="ptbaP2BZjWbsXgXxhmSc-4" edge="1">
          <mxGeometry width="50" height="50" relative="1" as="geometry">
            <mxPoint x="520" y="410" as="sourcePoint" />
            <mxPoint x="270" y="360" as="targetPoint" />
          </mxGeometry>
        </mxCell>
        <mxCell id="ptbaP2BZjWbsXgXxhmSc-7" value="FIRST OF ALL, CHECK IF DEVICE ALREDY HAVE A UUID" style="rounded=0;whiteSpace=wrap;html=1;" parent="1" vertex="1">
          <mxGeometry x="210" y="360" width="120" height="60" as="geometry" />
        </mxCell>
        <mxCell id="ptbaP2BZjWbsXgXxhmSc-10" value="" style="endArrow=classic;html=1;rounded=0;exitX=0.5;exitY=1;exitDx=0;exitDy=0;entryX=0.5;entryY=0;entryDx=0;entryDy=0;" parent="1" source="ptbaP2BZjWbsXgXxhmSc-7" target="ptbaP2BZjWbsXgXxhmSc-5" edge="1">
          <mxGeometry width="50" height="50" relative="1" as="geometry">
            <mxPoint x="400" y="410" as="sourcePoint" />
            <mxPoint x="630" y="460" as="targetPoint" />
            <Array as="points">
              <mxPoint x="270" y="460" />
              <mxPoint x="350" y="460" />
              <mxPoint x="420" y="460" />
              <mxPoint x="620" y="460" />
            </Array>
          </mxGeometry>
        </mxCell>
        <mxCell id="ptbaP2BZjWbsXgXxhmSc-12" value="" style="endArrow=classic;html=1;rounded=0;entryX=0.5;entryY=0;entryDx=0;entryDy=0;" parent="1" target="ptbaP2BZjWbsXgXxhmSc-13" edge="1">
          <mxGeometry width="50" height="50" relative="1" as="geometry">
            <mxPoint x="270" y="420" as="sourcePoint" />
            <mxPoint x="30" y="525" as="targetPoint" />
            <Array as="points">
              <mxPoint x="270" y="460" />
              <mxPoint x="30" y="460" />
            </Array>
          </mxGeometry>
        </mxCell>
        <mxCell id="IFn8C6RtzOVRZY2m0ua3-19" style="edgeStyle=orthogonalEdgeStyle;rounded=0;orthogonalLoop=1;jettySize=auto;html=1;exitX=0.5;exitY=1;exitDx=0;exitDy=0;entryX=0.5;entryY=0;entryDx=0;entryDy=0;" edge="1" parent="1" source="ptbaP2BZjWbsXgXxhmSc-13" target="IFn8C6RtzOVRZY2m0ua3-17">
          <mxGeometry relative="1" as="geometry">
            <mxPoint x="29.578947368421268" y="640" as="targetPoint" />
            <Array as="points">
              <mxPoint x="30" y="613" />
              <mxPoint x="-170" y="613" />
            </Array>
          </mxGeometry>
        </mxCell>
        <mxCell id="IFn8C6RtzOVRZY2m0ua3-20" style="edgeStyle=orthogonalEdgeStyle;rounded=0;orthogonalLoop=1;jettySize=auto;html=1;exitX=0.5;exitY=1;exitDx=0;exitDy=0;entryX=0.5;entryY=0;entryDx=0;entryDy=0;" edge="1" parent="1" source="ptbaP2BZjWbsXgXxhmSc-13" target="IFn8C6RtzOVRZY2m0ua3-18">
          <mxGeometry relative="1" as="geometry">
            <Array as="points">
              <mxPoint x="30" y="610" />
              <mxPoint x="190" y="610" />
            </Array>
          </mxGeometry>
        </mxCell>
        <mxCell id="ptbaP2BZjWbsXgXxhmSc-13" value="MAKE AVAILABLE GLOBALLY IN THE APP" style="rounded=0;whiteSpace=wrap;html=1;" parent="1" vertex="1">
          <mxGeometry x="-30" y="525" width="120" height="60" as="geometry" />
        </mxCell>
        <mxCell id="IFn8C6RtzOVRZY2m0ua3-15" style="edgeStyle=orthogonalEdgeStyle;rounded=0;orthogonalLoop=1;jettySize=auto;html=1;exitX=0;exitY=0.5;exitDx=0;exitDy=0;entryX=1;entryY=0.5;entryDx=0;entryDy=0;" edge="1" parent="1" source="IFn8C6RtzOVRZY2m0ua3-2" target="IFn8C6RtzOVRZY2m0ua3-11">
          <mxGeometry relative="1" as="geometry" />
        </mxCell>
        <mxCell id="IFn8C6RtzOVRZY2m0ua3-2" value="GET DEVICE INFO:&lt;div&gt;TYPE, NAME, MODEL.&lt;/div&gt;" style="rounded=0;whiteSpace=wrap;html=1;" vertex="1" parent="1">
          <mxGeometry x="370" y="525" width="120" height="60" as="geometry" />
        </mxCell>
        <mxCell id="IFn8C6RtzOVRZY2m0ua3-3" value="&lt;font style=&quot;color: rgb(51, 255, 51);&quot;&gt;YES&lt;/font&gt;" style="text;html=1;align=center;verticalAlign=middle;whiteSpace=wrap;rounded=0;" vertex="1" parent="1">
          <mxGeometry x="170" y="430" width="60" height="30" as="geometry" />
        </mxCell>
        <mxCell id="IFn8C6RtzOVRZY2m0ua3-5" value="&lt;font style=&quot;color: rgb(255, 0, 0);&quot;&gt;NO&lt;/font&gt;" style="text;html=1;align=center;verticalAlign=middle;whiteSpace=wrap;rounded=0;" vertex="1" parent="1">
          <mxGeometry x="330" y="430" width="60" height="30" as="geometry" />
        </mxCell>
        <mxCell id="IFn8C6RtzOVRZY2m0ua3-8" value="" style="endArrow=classic;html=1;rounded=0;exitX=0;exitY=0.5;exitDx=0;exitDy=0;entryX=1;entryY=0.5;entryDx=0;entryDy=0;" edge="1" parent="1" source="ptbaP2BZjWbsXgXxhmSc-5" target="IFn8C6RtzOVRZY2m0ua3-2">
          <mxGeometry width="50" height="50" relative="1" as="geometry">
            <mxPoint x="220" y="660" as="sourcePoint" />
            <mxPoint x="490" y="555" as="targetPoint" />
            <Array as="points" />
          </mxGeometry>
        </mxCell>
        <mxCell id="IFn8C6RtzOVRZY2m0ua3-16" style="edgeStyle=orthogonalEdgeStyle;rounded=0;orthogonalLoop=1;jettySize=auto;html=1;exitX=0;exitY=0.5;exitDx=0;exitDy=0;entryX=1;entryY=0.5;entryDx=0;entryDy=0;" edge="1" parent="1" source="IFn8C6RtzOVRZY2m0ua3-11" target="ptbaP2BZjWbsXgXxhmSc-13">
          <mxGeometry relative="1" as="geometry" />
        </mxCell>
        <mxCell id="IFn8C6RtzOVRZY2m0ua3-11" value="SAVE LOCALLY ON DEVICE" style="rounded=0;whiteSpace=wrap;html=1;" vertex="1" parent="1">
          <mxGeometry x="170" y="525" width="120" height="60" as="geometry" />
        </mxCell>
        <mxCell id="IFn8C6RtzOVRZY2m0ua3-22" style="edgeStyle=orthogonalEdgeStyle;rounded=0;orthogonalLoop=1;jettySize=auto;html=1;exitX=0.5;exitY=1;exitDx=0;exitDy=0;entryX=0.5;entryY=0;entryDx=0;entryDy=0;" edge="1" parent="1" source="IFn8C6RtzOVRZY2m0ua3-17" target="IFn8C6RtzOVRZY2m0ua3-21">
          <mxGeometry relative="1" as="geometry" />
        </mxCell>
        <mxCell id="IFn8C6RtzOVRZY2m0ua3-17" value="LOGIN" style="rounded=0;whiteSpace=wrap;html=1;" vertex="1" parent="1">
          <mxGeometry x="-230" y="680" width="120" height="60" as="geometry" />
        </mxCell>
        <mxCell id="IFn8C6RtzOVRZY2m0ua3-18" value="REGISTER" style="rounded=0;whiteSpace=wrap;html=1;" vertex="1" parent="1">
          <mxGeometry x="130" y="680" width="120" height="60" as="geometry" />
        </mxCell>
        <mxCell id="IFn8C6RtzOVRZY2m0ua3-21" value="VERIFY ON BACKEND IF THE DEVICE IS AUTHORIZED" style="rounded=0;whiteSpace=wrap;html=1;" vertex="1" parent="1">
          <mxGeometry x="-230" y="840" width="120" height="60" as="geometry" />
        </mxCell>
        <mxCell id="IFn8C6RtzOVRZY2m0ua3-23" value="" style="endArrow=classic;html=1;rounded=0;exitX=0.5;exitY=1;exitDx=0;exitDy=0;entryX=0.5;entryY=0;entryDx=0;entryDy=0;" edge="1" parent="1" source="IFn8C6RtzOVRZY2m0ua3-21" target="IFn8C6RtzOVRZY2m0ua3-25">
          <mxGeometry width="50" height="50" relative="1" as="geometry">
            <mxPoint x="-90" y="960" as="sourcePoint" />
            <mxPoint x="-330" y="1010" as="targetPoint" />
            <Array as="points">
              <mxPoint x="-170" y="950" />
              <mxPoint x="-330" y="950" />
            </Array>
          </mxGeometry>
        </mxCell>
        <mxCell id="IFn8C6RtzOVRZY2m0ua3-24" value="" style="endArrow=classic;html=1;rounded=0;exitX=0.5;exitY=1;exitDx=0;exitDy=0;entryX=0.5;entryY=0;entryDx=0;entryDy=0;entryPerimeter=0;" edge="1" parent="1" source="IFn8C6RtzOVRZY2m0ua3-21" target="IFn8C6RtzOVRZY2m0ua3-26">
          <mxGeometry width="50" height="50" relative="1" as="geometry">
            <mxPoint x="-90" y="960" as="sourcePoint" />
            <mxPoint x="-30" y="1010" as="targetPoint" />
            <Array as="points">
              <mxPoint x="-170" y="950" />
              <mxPoint x="-30" y="950" />
            </Array>
          </mxGeometry>
        </mxCell>
        <mxCell id="IFn8C6RtzOVRZY2m0ua3-25" value="MADE LOGIN, RETURN THE JWT" style="rounded=0;whiteSpace=wrap;html=1;" vertex="1" parent="1">
          <mxGeometry x="-390" y="1020" width="120" height="60" as="geometry" />
        </mxCell>
        <mxCell id="IFn8C6RtzOVRZY2m0ua3-26" value="SEND A CODE TO AUTHORIZE THE DEVICE" style="rounded=0;whiteSpace=wrap;html=1;" vertex="1" parent="1">
          <mxGeometry x="-90" y="1020" width="120" height="60" as="geometry" />
        </mxCell>
        <mxCell id="IFn8C6RtzOVRZY2m0ua3-28" value="&lt;font style=&quot;color: rgb(51, 255, 51);&quot;&gt;YES&lt;/font&gt;" style="text;html=1;align=center;verticalAlign=middle;whiteSpace=wrap;rounded=0;" vertex="1" parent="1">
          <mxGeometry x="-270" y="920" width="60" height="30" as="geometry" />
        </mxCell>
        <mxCell id="IFn8C6RtzOVRZY2m0ua3-29" value="&lt;font style=&quot;color: rgb(255, 0, 0);&quot;&gt;NO&lt;/font&gt;" style="text;html=1;align=center;verticalAlign=middle;whiteSpace=wrap;rounded=0;" vertex="1" parent="1">
          <mxGeometry x="-120" y="920" width="60" height="30" as="geometry" />
        </mxCell>
      </root>
    </mxGraphModel>
  </diagram>
</mxfile>
